{"title":"The Originals Season 03 S03 Complete Season 720p WEB-DL 2CH x265","uid":15842802,"size":4030466981,"categoryP":"video","categoryS":"tv_shows","magnet":"?xt=urn:btih:a35d88baa71e40d231346b607a8bbfbc2f693a04&amp;dn=The+Originals+Season+03+S03+Complete+Season+720p+WEB-DL+2CH+x265&amp;tr=udp%3A%2F%2Ftracker.leechers-paradise.org%3A6969&amp;tr=udp%3A%2F%2Fzer0day.ch%3A1337&amp;tr=udp%3A%2F%2Fopen.demonii.com%3A1337&amp;tr=udp%3A%2F%2Ftracker.coppersurfer.tk%3A6969&amp;tr=udp%3A%2F%2Fexodus.desync.com%3A6969","seeders":4,"leechers":5,"uploader":null,"files":22,"time":1474063010,"description":"The Originals Season 03 S03 Complete Season 720p WEB-DL 2CH x265 HEVC-PSA\r\nInfo\r\n\r\nFormat : Matroska\r\nFormat version : Version 4 / Version 2\r\nFile size : 150-210 MB\r\nDuration : ~~42mn\r\nOverall bit rate : ~~500 - 650 Kbps\r\nWriting application : mkvmerge 64bit\r\nWriting library : libebml v1.3.1 + libmatroska v1.4.2\r\n\r\nVideo\r\nID : 1\r\nFormat : HEVC\r\nFormat/Info : High Efficiency Video Coding\r\nFormat profile :   @Main\r\nCodec ID : V_MPEGH/ISO/HEVC\r\nWidth : 1 280 pixels\r\nHeight : 720 pixels\r\nDisplay aspect ratio : 16:9\r\nFrame rate mode : Constant\r\nFrame rate : 23.976 (23976/1000) fps\r\nOriginal frame rate : 23.976 (24000/1001) fps\r\nColor space : YUV\r\nChroma subsampling : 4:2:0\r\nBit depth : 8 bits\r\nBits/(Pixel*Frame) : 0.026\r\nStream size : 173 MiB (87%)\r\nDefault : Yes\r\nForced : No\r\nColor range : Limited\r\nColor primaries : BT.709\r\nTransfer characteristics : BT.709\r\nMatrix coefficients : BT.709\r\n\r\nAudio\r\nID : 2\r\nFormat : AAC\r\nFormat/Info : Advanced Audio Codec\r\nFormat profile : HE-AAC / LC\r\nCodec ID : A_AAC\r\nBit rate : ~~68 - 81 Kbps\r\nChannel(s) : 2 channels\r\nChannel positions : Front: L R\r\nSampling rate : 48.0 KHz / 24.0 KHz\r\nFrame rate : 23.438 fps (1024 spf)\r\nCompression mode : Lossy\r\nDelay relative to video : -105ms\r\nStream size : 24.2 MiB (12%)\r\nTitle : Stereo\r\nLanguage : English\r\nDefault : Yes\r\nForced : No\r\n\r\nText\r\nID : 3\r\nFormat : UTF-8\r\nCodec ID : S_TEXT/UTF8\r\nCodec ID/Info : UTF-8 Plain Text\r\nDefault : Yes\r\nForced : No","torrent":{"xt":"urn:btih:a35d88baa71e40d231346b607a8bbfbc2f693a04","amp;dn":"The+Originals+Season+03+S03+Complete+Season+720p+WEB-DL+2CH+x265","amp;tr":["udp%3A%2F%2Ftracker.leechers-paradise.org%3A6969","udp%3A%2F%2Fzer0day.ch%3A1337","udp%3A%2F%2Fopen.demonii.com%3A1337","udp%3A%2F%2Ftracker.coppersurfer.tk%3A6969","udp%3A%2F%2Fexodus.desync.com%3A6969"],"infoHash":"a35d88baa71e40d231346b607a8bbfbc2f693a04","infoHashBuffer":{"type":"Buffer","data":[163,93,136,186,167,30,64,210,49,52,107,96,122,139,191,188,47,105,58,4]},"announce":[],"urlList":[]}}